<svg width="247" height="94" viewBox="0 0 247 94" fill="none" xmlns="http://www.w3.org/2000/svg">
<path d="M190.213 0H190.226C201.231 10.791 212.126 21.6856 223.119 32.4889C215.202 40.5319 207.071 48.3616 199.129 56.3863C196.243 59.3111 193.191 62.1078 190.477 65.1971H189.833C186.941 61.7361 183.534 58.7078 180.379 55.4845C186.641 49.2939 192.867 43.0666 199.111 36.8638C200.447 35.5111 201.923 34.2315 203.094 32.7265C202.763 31.782 202.003 31.0935 201.329 30.3867C194.288 23.5502 187.376 16.5796 180.397 9.68207C183.681 6.46487 186.911 3.19283 190.213 0Z" fill="#F9004D"/>
<path d="M235.879 0H235.969C239.183 3.1161 242.169 6.51547 245.576 9.42061V9.85458C243.319 11.6386 241.302 13.9049 239.238 15.9481C235.62 19.5645 232.033 23.223 228.379 26.8032C225.177 23.5847 221.975 20.3661 218.772 17.1476C224.497 11.4578 230.191 5.73193 235.879 0Z" fill="#19181D"/>
<path d="M70.5315 8.69348H58.9861C57.3003 17.1496 56.077 25.9146 54.7502 34.437C53.5208 41.1874 52.4922 48.2693 51.4332 55.0559C55.0788 55.0559 58.6773 55.0197 62.3578 55.0197C63.5629 46.6359 64.914 37.9508 66.4051 29.6093L75.3578 55.0559H81.7457C84.7562 46.9783 84.7562 46.7251 90.8227 29.6756C92.5877 38.0412 93.2206 46.6359 94.7604 55.0559C98.4243 55.0438 102.094 55.0498 105.764 55.0498C104.985 49.3723 103.963 43.7369 103.19 38.0593C101.936 28.3134 100.287 18.6278 98.9477 8.89398C95.1134 8.86384 91.2791 8.84576 87.4449 8.9C84.7562 16.662 81.8585 25.355 78.9547 33.2316C76.0632 25.355 73.1542 16.7084 70.5315 8.69348Z" fill="black"/>
<path d="M111.572 8.70342C114.884 8.70342 118.202 8.6669 121.515 8.73386C129.424 17.6585 136.773 27.1188 144.876 35.8668C145.28 26.8692 144.81 17.8228 145.129 8.81909C148.653 8.83127 152.176 8.83127 155.694 8.81909C155.79 24.221 155.73 39.6229 155.73 55.0187C152.4 55.0005 148.931 55.1344 145.607 54.9822C139.449 47.8117 130.394 37.3078 122.613 28.3241C122.45 37.1574 122.595 45.9968 122.534 54.8239C118.963 54.8179 115.385 54.8239 111.807 54.8239C111.771 39.4464 111.499 24.0749 111.572 8.70342Z" fill="black"/>
<path fill-rule="evenodd" clip-rule="evenodd" d="M47.3542 27.8818C45.1993 17.1402 35.3958 7.92343 24.2872 7.97243C14.1559 7.80095 4.38881 14.7334 1.29904 24.483C0.631308 26.5835 0.242811 28.7821 0 30.9745V32.5974C0.297443 36.7495 1.1837 41.0915 3.39935 44.6618C7.07794 50.5899 13.1968 54.9748 20.0319 56.2669C24.1779 56.763 28.3178 56.5731 32.1725 54.8339C42.3826 50.8104 49.758 38.948 47.3542 27.8818ZM35.6173 26.4187C32.9106 21.4026 26.3407 17.2464 20.5035 19.432C17.6636 20.3875 15.1506 22.4238 13.2554 24.687C9.71912 29.1776 10.258 35.818 13.8851 40.0936C16.7916 43.6287 21.7327 45.5098 26.2862 44.7454C34.1943 43.36 39.5653 33.5607 35.6173 26.4187Z" fill="black"/>
<path d="M227.812 37.6694C233.903 43.3476 239.473 49.6568 245.576 55.329V55.9538L245.279 55.6597C242.2 58.8695 239.03 61.9996 235.933 65.197H235.806C229.848 59.2615 224 53.2096 218.048 47.274C221.303 44.1256 224.266 40.4564 227.812 37.6694Z" fill="#19181D"/>
<path d="M165.995 8.69348C169.15 8.69348 172.772 8.70458 176.011 8.70458C176.034 24.1474 176.046 39.5903 176.005 55.0271C172.678 55.0029 169.15 55.0271 165.989 55.0271C165.826 51.0182 165.937 46.834 165.908 42.8252C165.966 31.5 165.785 20.0005 165.995 8.69348Z" fill="black"/>
<rect x="143.194" y="78.9856" width="7.59153" height="4.31802" transform="rotate(-45 143.194 78.9856)" fill="#030304"/>
<rect width="7.59153" height="4.31802" transform="matrix(-0.707107 -0.707107 -0.707107 0.707107 151.413 90.7426)" fill="#030304"/>
<path d="M134.073 73.6755L131.119 76.6581L138.17 83.8107L131.119 90.9634L134.073 93.946L144.338 83.8107L134.073 73.6755Z" fill="#FF0F00"/>
<path d="M155.657 93.4546C155.247 93.4546 154.926 93.3387 154.694 93.107C154.48 92.8752 154.373 92.5544 154.373 92.1444V75.5391C154.373 75.1113 154.489 74.7904 154.721 74.5765C154.953 74.3447 155.265 74.2289 155.657 74.2289C156.031 74.2289 156.316 74.3002 156.512 74.4428C156.726 74.5676 156.922 74.7993 157.101 75.138L164.106 88.2137H163.277L170.256 75.138C170.435 74.7993 170.622 74.5676 170.818 74.4428C171.014 74.3002 171.299 74.2289 171.674 74.2289C172.066 74.2289 172.369 74.3447 172.583 74.5765C172.797 74.7904 172.904 75.1113 172.904 75.5391V92.1444C172.904 92.5544 172.797 92.8752 172.583 93.107C172.387 93.3387 172.084 93.4546 171.674 93.4546C171.264 93.4546 170.952 93.3387 170.738 93.107C170.524 92.8752 170.417 92.5544 170.417 92.1444V78.3468H171.005L164.802 89.818C164.659 90.0854 164.507 90.2815 164.347 90.4063C164.187 90.5311 163.964 90.5935 163.679 90.5935C163.393 90.5935 163.162 90.5311 162.983 90.4063C162.805 90.2637 162.645 90.0676 162.502 89.818L156.245 78.32H156.887V92.1444C156.887 92.5544 156.78 92.8752 156.566 93.107C156.37 93.3387 156.067 93.4546 155.657 93.4546ZM182.726 93.5081C181.407 93.5081 180.266 93.2318 179.303 92.6792C178.358 92.1265 177.619 91.3422 177.084 90.3261C176.549 89.31 176.282 88.1156 176.282 86.743C176.282 85.6912 176.433 84.7553 176.736 83.9353C177.039 83.1153 177.467 82.4112 178.02 81.8229C178.59 81.2168 179.268 80.7622 180.052 80.4592C180.854 80.1383 181.745 79.9779 182.726 79.9779C184.027 79.9779 185.15 80.2542 186.095 80.8068C187.058 81.3594 187.806 82.1438 188.341 83.1599C188.876 84.1582 189.143 85.3525 189.143 86.743C189.143 87.7769 188.992 88.7128 188.689 89.5506C188.386 90.3885 187.949 91.1015 187.379 91.6898C186.826 92.2781 186.149 92.7326 185.346 93.0535C184.562 93.3566 183.689 93.5081 182.726 93.5081ZM182.726 91.4224C183.457 91.4224 184.099 91.2441 184.651 90.8876C185.204 90.5311 185.632 90.0052 185.935 89.31C186.255 88.6147 186.416 87.7591 186.416 86.743C186.416 85.2099 186.077 84.0512 185.4 83.2668C184.722 82.4825 183.831 82.0903 182.726 82.0903C181.977 82.0903 181.327 82.2686 180.774 82.6251C180.221 82.9638 179.785 83.4808 179.464 84.176C179.161 84.8712 179.009 85.7269 179.009 86.743C179.009 88.2582 179.348 89.4169 180.025 90.2191C180.703 91.0213 181.603 91.4224 182.726 91.4224ZM193.513 93.4546C193.086 93.4546 192.756 93.3387 192.524 93.107C192.292 92.8574 192.176 92.5187 192.176 92.0909V81.3951C192.176 80.9494 192.292 80.6107 192.524 80.379C192.756 80.1472 193.077 80.0314 193.487 80.0314C193.914 80.0314 194.235 80.1472 194.449 80.379C194.681 80.6107 194.797 80.9494 194.797 81.3951V83.4808L194.503 82.9994C194.895 82.0012 195.51 81.2525 196.348 80.7533C197.186 80.2364 198.148 79.9779 199.236 79.9779C200.27 79.9779 201.125 80.174 201.803 80.5661C202.498 80.9405 203.015 81.5199 203.354 82.3042C203.692 83.0707 203.862 84.0423 203.862 85.2188V92.0909C203.862 92.5187 203.746 92.8574 203.514 93.107C203.282 93.3387 202.952 93.4546 202.525 93.4546C202.079 93.4546 201.74 93.3387 201.509 93.107C201.277 92.8574 201.161 92.5187 201.161 92.0909V85.3793C201.161 84.2562 200.938 83.4362 200.492 82.9192C200.065 82.4023 199.387 82.1438 198.46 82.1438C197.373 82.1438 196.499 82.4825 195.84 83.1599C195.198 83.8373 194.877 84.7464 194.877 85.8873V92.0909C194.877 93 194.423 93.4546 193.513 93.4546ZM208.92 93.4279C208.492 93.4279 208.162 93.3031 207.931 93.0535C207.699 92.7861 207.583 92.4207 207.583 91.9572V81.5288C207.583 81.0653 207.699 80.7088 207.931 80.4592C208.162 80.2096 208.492 80.0848 208.92 80.0848C209.348 80.0848 209.678 80.2096 209.909 80.4592C210.159 80.7088 210.284 81.0653 210.284 81.5288V91.9572C210.284 92.4207 210.168 92.7861 209.936 93.0535C209.704 93.3031 209.366 93.4279 208.92 93.4279ZM208.92 77.3039C208.385 77.3039 207.966 77.1702 207.663 76.9028C207.378 76.6354 207.235 76.2611 207.235 75.7798C207.235 75.2806 207.378 74.9063 207.663 74.6567C207.966 74.3893 208.385 74.2556 208.92 74.2556C209.455 74.2556 209.865 74.3893 210.15 74.6567C210.453 74.9063 210.605 75.2806 210.605 75.7798C210.605 76.2611 210.453 76.6354 210.15 76.9028C209.865 77.1702 209.455 77.3039 208.92 77.3039ZM219.647 93.5081C218.577 93.5081 217.677 93.3209 216.946 92.9466C216.215 92.5722 215.672 92.0196 215.315 91.2887C214.959 90.5578 214.78 89.6665 214.78 88.6147V82.3042H213.176C212.819 82.3042 212.543 82.2151 212.347 82.0368C212.151 81.8407 212.053 81.5822 212.053 81.2614C212.053 80.9227 212.151 80.6642 212.347 80.4859C212.543 80.3077 212.819 80.2185 213.176 80.2185H214.78V77.4644C214.78 77.0187 214.896 76.68 215.128 76.4483C215.377 76.2165 215.716 76.1006 216.144 76.1006C216.572 76.1006 216.902 76.2165 217.133 76.4483C217.365 76.68 217.481 77.0187 217.481 77.4644V80.2185H220.61C220.966 80.2185 221.242 80.3077 221.438 80.4859C221.635 80.6642 221.733 80.9227 221.733 81.2614C221.733 81.5822 221.635 81.8407 221.438 82.0368C221.242 82.2151 220.966 82.3042 220.61 82.3042H217.481V88.4008C217.481 89.3456 217.677 90.0587 218.069 90.54C218.479 91.0213 219.139 91.262 220.048 91.262C220.369 91.262 220.645 91.2352 220.877 91.1817C221.126 91.1104 221.332 91.0659 221.492 91.048C221.688 91.048 221.848 91.1193 221.973 91.262C222.098 91.3867 222.16 91.6363 222.16 92.0107C222.16 92.2781 222.107 92.5276 222 92.7594C221.911 92.9911 221.742 93.1426 221.492 93.2139C221.278 93.2853 220.984 93.3476 220.61 93.4011C220.253 93.4724 219.932 93.5081 219.647 93.5081ZM229.39 93.5081C228.07 93.5081 226.929 93.2318 225.967 92.6792C225.022 92.1265 224.282 91.3422 223.747 90.3261C223.213 89.31 222.945 88.1156 222.945 86.743C222.945 85.6912 223.097 84.7553 223.4 83.9353C223.703 83.1153 224.131 82.4112 224.683 81.8229C225.254 81.2168 225.931 80.7622 226.716 80.4592C227.518 80.1383 228.409 79.9779 229.39 79.9779C230.691 79.9779 231.814 80.2542 232.759 80.8068C233.721 81.3594 234.47 82.1438 235.005 83.1599C235.54 84.1582 235.807 85.3525 235.807 86.743C235.807 87.7769 235.655 88.7128 235.352 89.5506C235.049 90.3885 234.613 91.1015 234.042 91.6898C233.49 92.2781 232.812 92.7326 232.01 93.0535C231.226 93.3566 230.352 93.5081 229.39 93.5081ZM229.39 91.4224C230.12 91.4224 230.762 91.2441 231.315 90.8876C231.867 90.5311 232.295 90.0052 232.598 89.31C232.919 88.6147 233.08 87.7591 233.08 86.743C233.08 85.2099 232.741 84.0512 232.063 83.2668C231.386 82.4825 230.495 82.0903 229.39 82.0903C228.641 82.0903 227.99 82.2686 227.438 82.6251C226.885 82.9638 226.448 83.4808 226.127 84.176C225.824 84.8712 225.673 85.7269 225.673 86.743C225.673 88.2582 226.011 89.4169 226.689 90.2191C227.366 91.0213 228.266 91.4224 229.39 91.4224ZM240.204 93.4546C239.758 93.4546 239.419 93.3387 239.188 93.107C238.956 92.8574 238.84 92.5187 238.84 92.0909V81.3951C238.84 80.9494 238.956 80.6107 239.188 80.379C239.419 80.1472 239.74 80.0314 240.15 80.0314C240.578 80.0314 240.899 80.1472 241.113 80.379C241.345 80.6107 241.461 80.9494 241.461 81.3951V83.3471H241.193C241.478 82.2775 242.004 81.4664 242.771 80.9138C243.537 80.3611 244.518 80.0403 245.712 79.9511C246.033 79.9333 246.283 80.0135 246.461 80.1918C246.657 80.3701 246.764 80.6464 246.782 81.0207C246.817 81.3951 246.737 81.6981 246.541 81.9299C246.345 82.1438 246.042 82.2686 245.632 82.3042L245.124 82.3577C243.965 82.4647 243.083 82.8301 242.477 83.454C241.871 84.0779 241.567 84.9336 241.567 86.021V92.0909C241.567 92.5187 241.452 92.8574 241.22 93.107C241.006 93.3387 240.667 93.4546 240.204 93.4546Z" fill="black"/>
</svg>
