<svg width="103" height="40" viewBox="0 0 103 40" fill="none" xmlns="http://www.w3.org/2000/svg">
<path d="M79.0048 0H79.0099C83.581 4.48206 88.1062 9.00714 92.6721 13.4943C89.3838 16.8349 86.0065 20.087 82.708 23.4201C81.5092 24.6349 80.2418 25.7965 79.1143 27.0796H78.847C77.6457 25.6421 76.2307 24.3843 74.9199 23.0455C77.521 20.4742 80.1069 17.8878 82.7004 15.3114C83.2552 14.7495 83.8686 14.2181 84.3547 13.593C84.2172 13.2007 83.9017 12.9147 83.6217 12.6211C80.6973 9.78157 77.8264 6.88633 74.9276 4.02145C76.2917 2.68519 77.633 1.32614 79.0048 0Z" fill="white"/>
<path d="M97.9723 0H98.0098C99.3449 1.29427 100.585 2.70621 102 3.91286V4.0931C101.062 4.83412 100.225 5.77541 99.3674 6.62407C97.8648 8.12613 96.3748 9.64571 94.8573 11.1327C93.5272 9.79591 92.1972 8.45908 90.8672 7.12225C93.2447 4.75902 95.6098 2.38076 97.9723 0Z" fill="white"/>
<path d="M29.2958 3.61035H24.5004C23.8002 7.12259 23.2921 10.7632 22.741 14.3029C22.2303 17.1067 21.8031 20.0482 21.3633 22.867C22.8775 22.867 24.3721 22.852 25.9008 22.852C26.4013 19.3698 26.9625 15.7624 27.5819 12.2977L31.3004 22.867H33.9536C35.204 19.512 35.204 19.4068 37.7237 12.3253C38.4568 15.8 38.7197 19.3698 39.3593 22.867C40.881 22.862 42.4053 22.8645 43.9297 22.8645C43.6061 20.5063 43.1814 18.1657 42.8604 15.8075C42.3396 11.7595 41.6546 7.73658 41.0984 3.69363C39.5059 3.68111 37.9133 3.6736 36.3207 3.69613C35.204 6.92009 34.0005 10.5307 32.7944 13.8023C31.5934 10.5307 30.3851 6.93934 29.2958 3.61035Z" fill="white"/>
<path d="M46.341 3.61448C47.7168 3.61448 49.0951 3.59931 50.4708 3.62712C53.7562 7.33396 56.8084 11.2633 60.1739 14.8968C60.3418 11.1596 60.1464 7.40223 60.2792 3.66252C61.7427 3.66758 63.2062 3.66758 64.6671 3.66252C64.7072 10.0597 64.6822 16.4569 64.6822 22.8516C63.2989 22.844 61.8583 22.8996 60.4775 22.8364C57.92 19.8581 54.1589 15.4953 50.9269 11.764C50.8593 15.4329 50.9194 19.1043 50.8944 22.7707C49.4108 22.7681 47.9248 22.7707 46.4387 22.7707C46.4237 16.3836 46.3109 9.99903 46.341 3.61448Z" fill="white"/>
<path fill-rule="evenodd" clip-rule="evenodd" d="M19.6686 11.5802C18.7735 7.11869 14.7017 3.29051 10.0877 3.31086C5.87965 3.23964 1.82289 6.11904 0.539556 10.1685C0.262214 11.041 0.100852 11.9542 0 12.8648V13.5388C0.123543 15.2634 0.491652 17.0669 1.41192 18.5498C2.93983 21.0121 5.48129 22.8333 8.32026 23.37C10.0423 23.5761 11.7618 23.4972 13.3628 22.7748C17.6037 21.1036 20.667 16.1766 19.6686 11.5802ZM14.794 10.972C13.6698 8.88859 10.941 7.16231 8.51652 8.07009C7.33697 8.46694 6.29323 9.31272 5.50602 10.2527C4.03724 12.1179 4.26108 14.876 5.76758 16.6519C6.9748 18.1202 9.02707 18.9015 10.9184 18.584C14.203 18.0086 16.4339 13.9385 14.794 10.972Z" fill="white"/>
<path d="M94.6218 15.6465C97.1517 18.005 99.4651 20.6255 102 22.9814V23.2409L101.877 23.1188C100.598 24.452 99.2813 25.752 97.995 27.0801H97.9421C95.4676 24.6148 93.0384 22.1011 90.5664 19.6358C91.9182 18.3281 93.1492 16.8041 94.6218 15.6465Z" fill="white"/>
<path d="M68.9459 3.61035C70.2563 3.61035 71.7608 3.61496 73.1059 3.61496C73.1156 10.0292 73.1205 16.4434 73.1035 22.855C71.7217 22.845 70.2563 22.855 68.9434 22.855C68.8756 21.19 68.9216 19.4521 68.9095 17.787C68.9338 13.0831 68.8586 8.30673 68.9459 3.61035Z" fill="white"/>
<rect x="59.4756" y="32.8066" width="3.15315" height="1.79349" transform="rotate(-45 59.4756 32.8066)" fill="white"/>
<rect width="3.15315" height="1.79349" transform="matrix(-0.707107 -0.707107 -0.707107 0.707107 62.8887 37.6895)" fill="white"/>
<path d="M55.6868 30.6016L54.46 31.8404L57.3887 34.8113L54.46 37.7821L55.6868 39.021L59.9506 34.8113L55.6868 30.6016Z" fill="white"/>
<path d="M64.6516 39.2633C64.4813 39.2633 64.348 39.2152 64.2518 39.1189C64.1629 39.0227 64.1185 38.8894 64.1185 38.7191V31.8221C64.1185 31.6444 64.1666 31.5111 64.2629 31.4223C64.3591 31.326 64.4887 31.2779 64.6516 31.2779C64.8071 31.2779 64.9255 31.3075 65.007 31.3667C65.0958 31.4186 65.1773 31.5148 65.2513 31.6555L68.1612 37.0865H67.8169L70.7156 31.6555C70.7896 31.5148 70.8674 31.4186 70.9488 31.3667C71.0303 31.3075 71.1488 31.2779 71.3042 31.2779C71.4671 31.2779 71.593 31.326 71.6819 31.4223C71.7707 31.5111 71.8151 31.6444 71.8151 31.8221V38.7191C71.8151 38.8894 71.7707 39.0227 71.6819 39.1189C71.6004 39.2152 71.4745 39.2633 71.3042 39.2633C71.1339 39.2633 71.0044 39.2152 70.9155 39.1189C70.8267 39.0227 70.7822 38.8894 70.7822 38.7191V32.9882H71.0266L68.4499 37.7528C68.3907 37.8639 68.3278 37.9453 68.2611 37.9972C68.1945 38.049 68.1019 38.0749 67.9835 38.0749C67.865 38.0749 67.7687 38.049 67.6947 37.9972C67.6207 37.9379 67.554 37.8565 67.4948 37.7528L64.8959 32.9771H65.1625V38.7191C65.1625 38.8894 65.118 39.0227 65.0292 39.1189C64.9477 39.2152 64.8219 39.2633 64.6516 39.2633ZM75.8948 39.2855C75.3469 39.2855 74.873 39.1707 74.4732 38.9412C74.0808 38.7117 73.7735 38.3859 73.5514 37.9639C73.3292 37.5418 73.2182 37.0457 73.2182 36.4756C73.2182 36.0388 73.2811 35.65 73.407 35.3095C73.5328 34.9689 73.7105 34.6764 73.9401 34.4321C74.177 34.1803 74.4584 33.9915 74.7842 33.8656C75.1173 33.7324 75.4875 33.6657 75.8948 33.6657C76.4353 33.6657 76.9017 33.7805 77.2942 34.01C77.694 34.2395 78.005 34.5653 78.2271 34.9874C78.4492 35.402 78.5603 35.8981 78.5603 36.4756C78.5603 36.9051 78.4974 37.2938 78.3715 37.6418C78.2456 37.9898 78.0642 38.2859 77.8273 38.5303C77.5977 38.7746 77.3164 38.9634 76.9832 39.0967C76.6574 39.2226 76.2946 39.2855 75.8948 39.2855ZM75.8948 38.4192C76.1984 38.4192 76.4649 38.3452 76.6944 38.1971C76.924 38.049 77.1017 37.8306 77.2275 37.5418C77.3608 37.2531 77.4274 36.8977 77.4274 36.4756C77.4274 35.8389 77.2868 35.3576 77.0054 35.0318C76.724 34.706 76.3538 34.5431 75.8948 34.5431C75.5838 34.5431 75.3136 34.6172 75.084 34.7652C74.8545 34.9059 74.6731 35.1206 74.5398 35.4094C74.4139 35.6982 74.351 36.0536 74.351 36.4756C74.351 37.105 74.4917 37.5862 74.773 37.9194C75.0544 38.2526 75.4283 38.4192 75.8948 38.4192ZM80.3754 39.2633C80.1977 39.2633 80.0607 39.2152 79.9645 39.1189C79.8682 39.0153 79.8201 38.8746 79.8201 38.6969V34.2544C79.8201 34.0693 79.8682 33.9286 79.9645 33.8323C80.0607 33.7361 80.194 33.6879 80.3643 33.6879C80.542 33.6879 80.6753 33.7361 80.7641 33.8323C80.8604 33.9286 80.9085 34.0693 80.9085 34.2544V35.1206L80.7863 34.9207C80.9492 34.5061 81.2047 34.1951 81.5527 33.9878C81.9006 33.7731 82.3005 33.6657 82.7521 33.6657C83.1816 33.6657 83.537 33.7472 83.8183 33.9101C84.1071 34.0656 84.3218 34.3062 84.4625 34.632C84.6032 34.9504 84.6735 35.3539 84.6735 35.8426V38.6969C84.6735 38.8746 84.6254 39.0153 84.5291 39.1189C84.4329 39.2152 84.2959 39.2633 84.1182 39.2633C83.9331 39.2633 83.7924 39.2152 83.6962 39.1189C83.5999 39.0153 83.5518 38.8746 83.5518 38.6969V35.9092C83.5518 35.4427 83.4592 35.1021 83.2741 34.8874C83.0964 34.6727 82.8151 34.5653 82.43 34.5653C81.9784 34.5653 81.6156 34.706 81.3416 34.9874C81.0751 35.2687 80.9418 35.6463 80.9418 36.1202V38.6969C80.9418 39.0745 80.753 39.2633 80.3754 39.2633ZM86.7745 39.2522C86.5968 39.2522 86.4598 39.2004 86.3636 39.0967C86.2673 38.9856 86.2192 38.8338 86.2192 38.6413V34.3099C86.2192 34.1174 86.2673 33.9693 86.3636 33.8656C86.4598 33.762 86.5968 33.7101 86.7745 33.7101C86.9522 33.7101 87.0892 33.762 87.1854 33.8656C87.2891 33.9693 87.3409 34.1174 87.3409 34.3099V38.6413C87.3409 38.8338 87.2928 38.9856 87.1966 39.0967C87.1003 39.2004 86.9596 39.2522 86.7745 39.2522ZM86.7745 32.5551C86.5524 32.5551 86.3784 32.4996 86.2525 32.3885C86.1341 32.2774 86.0748 32.122 86.0748 31.922C86.0748 31.7147 86.1341 31.5592 86.2525 31.4556C86.3784 31.3445 86.5524 31.289 86.7745 31.289C86.9966 31.289 87.1669 31.3445 87.2854 31.4556C87.4113 31.5592 87.4742 31.7147 87.4742 31.922C87.4742 32.122 87.4113 32.2774 87.2854 32.3885C87.1669 32.4996 86.9966 32.5551 86.7745 32.5551ZM91.23 39.2855C90.7857 39.2855 90.4118 39.2078 90.1082 39.0523C89.8046 38.8968 89.5788 38.6673 89.4307 38.3637C89.2827 38.0601 89.2086 37.6899 89.2086 37.2531V34.632H88.5422C88.3941 34.632 88.2794 34.5949 88.1979 34.5209C88.1165 34.4395 88.0758 34.3321 88.0758 34.1988C88.0758 34.0581 88.1165 33.9508 88.1979 33.8767C88.2794 33.8027 88.3941 33.7657 88.5422 33.7657H89.2086V32.6217C89.2086 32.4366 89.2567 32.2959 89.353 32.1997C89.4566 32.1034 89.5973 32.0553 89.775 32.0553C89.9527 32.0553 90.0897 32.1034 90.186 32.1997C90.2822 32.2959 90.3303 32.4366 90.3303 32.6217V33.7657H91.6298C91.7779 33.7657 91.8926 33.8027 91.9741 33.8767C92.0555 33.9508 92.0962 34.0581 92.0962 34.1988C92.0962 34.3321 92.0555 34.4395 91.9741 34.5209C91.8926 34.5949 91.7779 34.632 91.6298 34.632H90.3303V37.1642C90.3303 37.5566 90.4118 37.8528 90.5747 38.0527C90.745 38.2526 91.0189 38.3526 91.3965 38.3526C91.5298 38.3526 91.6446 38.3415 91.7408 38.3193C91.8445 38.2896 91.9296 38.2711 91.9963 38.2637C92.0777 38.2637 92.1444 38.2933 92.1962 38.3526C92.248 38.4044 92.2739 38.5081 92.2739 38.6636C92.2739 38.7746 92.2517 38.8783 92.2073 38.9745C92.1703 39.0708 92.0999 39.1337 91.9963 39.1633C91.9074 39.193 91.7853 39.2189 91.6298 39.2411C91.4817 39.2707 91.3484 39.2855 91.23 39.2855ZM95.2765 39.2855C94.7286 39.2855 94.2548 39.1707 93.8549 38.9412C93.4625 38.7117 93.1552 38.3859 92.9331 37.9639C92.711 37.5418 92.5999 37.0457 92.5999 36.4756C92.5999 36.0388 92.6629 35.65 92.7887 35.3095C92.9146 34.9689 93.0923 34.6764 93.3218 34.4321C93.5588 34.1803 93.8401 33.9915 94.1659 33.8656C94.4991 33.7324 94.8693 33.6657 95.2765 33.6657C95.8171 33.6657 96.2835 33.7805 96.6759 34.01C97.0758 34.2395 97.3867 34.5653 97.6089 34.9874C97.831 35.402 97.9421 35.8981 97.9421 36.4756C97.9421 36.9051 97.8791 37.2938 97.7532 37.6418C97.6274 37.9898 97.446 38.2859 97.209 38.5303C96.9795 38.7746 96.6981 38.9634 96.365 39.0967C96.0392 39.2226 95.6764 39.2855 95.2765 39.2855ZM95.2765 38.4192C95.5801 38.4192 95.8467 38.3452 96.0762 38.1971C96.3057 38.049 96.4834 37.8306 96.6093 37.5418C96.7426 37.2531 96.8092 36.8977 96.8092 36.4756C96.8092 35.8389 96.6685 35.3576 96.3872 35.0318C96.1058 34.706 95.7356 34.5431 95.2765 34.5431C94.9656 34.5431 94.6953 34.6172 94.4658 34.7652C94.2363 34.9059 94.0549 35.1206 93.9216 35.4094C93.7957 35.6982 93.7328 36.0536 93.7328 36.4756C93.7328 37.105 93.8735 37.5862 94.1548 37.9194C94.4362 38.2526 94.8101 38.4192 95.2765 38.4192ZM99.7683 39.2633C99.5831 39.2633 99.4425 39.2152 99.3462 39.1189C99.25 39.0153 99.2018 38.8746 99.2018 38.6969V34.2544C99.2018 34.0693 99.25 33.9286 99.3462 33.8323C99.4425 33.7361 99.5757 33.6879 99.746 33.6879C99.9237 33.6879 100.057 33.7361 100.146 33.8323C100.242 33.9286 100.29 34.0693 100.29 34.2544V35.0651H100.179C100.298 34.6209 100.516 34.284 100.834 34.0544C101.153 33.8249 101.56 33.6916 102.056 33.6546C102.189 33.6472 102.293 33.6805 102.367 33.7546C102.449 33.8286 102.493 33.9434 102.5 34.0989C102.515 34.2544 102.482 34.3802 102.4 34.4765C102.319 34.5653 102.193 34.6172 102.023 34.632L101.812 34.6542C101.331 34.6986 100.964 34.8504 100.712 35.1095C100.461 35.3687 100.335 35.7241 100.335 36.1757V38.6969C100.335 38.8746 100.287 39.0153 100.19 39.1189C100.101 39.2152 99.9608 39.2633 99.7683 39.2633Z" fill="white"/>
</svg>
